<?xml version="1.0" encoding="UTF-8"?>
<svg version="1.1" viewBox="0 0 2000 2000" width="500" height="500" xmlns="http://www.w3.org/2000/svg">
<path transform="translate(990,472)" d="m0 0h41l25 2 30 5 29 7 25 7 26 9 30 13 16 8 15 10 9 8 10-3 28-9 26-7 4 1 6 25 13 43 1 8h70l3 8 8 31 9 30 13 44 12 35 8 26 10 32 11 35 14 45 18 58 14 45 13 41 6 15 1 9-4 8-5 4-15 4-25 4-23 4-22 4-1 9-10 26-16 33-13 24-19 28-10 14-10 13-12 14-14 15-27 27-11 9-13 11-14 10-21 14-18 11-24 13-24 11-36 13-41 11-27 5-33 4-28 2h-21l-38-3-30-4-30-7-36-11-33-13-29-14-22-12-19-12-17-12-16-12-14-12-12-11-7-7-8-7-15-15-9-11-13-15-10-13-2-1-2 4-4 2-25 2h-135l-5-3-5-8 1-5 4-5 25-1 105-2h31l-17-29-10-19-11-23-11-26-4-13-2-1-66-10-15-4-5-4-2-4 1-9 8-27 15-48 9-30 12-39 15-48 21-67 13-40 5-15 18-57 13-44 7-28 2-6h74l5-24 11-42 2-12 5 1 10 4 46 13 6 2 10-8 17-11 27-14 26-10 29-9 33-8 35-6 16-2z" fill="#092138"/>
<path transform="translate(738,563)" d="m0 0 7 1 10 5 28 11 21 12 20 10 22 13 13 8 12 7 15 12 16 12 13 11 12 11 2 4h2l7 8 11 13 9 12 15 25 9 20 11 26 2 6-1 290-5-5-11-16-20-26-9-13-9-10-7-8-22-22-8-7-15-12-12-8-15-11-18-11-17-10-28-15-17-9-28-11-25-8-49-11-24-4-1-4 7-28 11-34 7-24 5-1 25 8 36 12 15 6 17 8 19 11 23 13 21 13 18 13 26 20 10 8 7 7 8 7 12 12 9 11 3 3 5-1 10-6 3-1-9-14-8-10-9-11-26-26-8-7-11-10-11-9-20-15-18-11-18-10-20-9-26-13-27-11-25-9-19-5-6-2-1-3 10-34 8-27 2-7 6 1 23 8 20 8 20 9 13 7 24 12 16 11 18 12 13 10 13 12 11 10 8 7 13 11 8 7 10 10 7 8 2 2 7-1 11-3h3l-4-7-12-14-14-17-11-14-16-17-8-7-11-9-12-10-17-11-19-12-22-13-26-14-26-11-37-14-4-2v-6l6-18 15-54z" fill="#FDFDFD"/>
<path transform="translate(1275,562)" d="m0 0 4 1 8 30 7 26 8 18-1 4-36 12-24 10-24 11-17 11-18 11-15 10-14 8-13 10-13 12-7 8-8 8-9 11-16 21-9 10-13 19-1 7 4 2 6 4h4l9-11 9-10 7-8 8-8 11-9 9-10 11-11 11-9 10-8 18-13 12-8 19-12 40-20 24-9 26-8h5l3 7 9 29 8 22 2 7v4l-31 9-52 20-29 14-22 11-16 10-16 11-14 10-13 11-5 5h-2l-2 4-11 12-24 24-11 15-11 16-4 7-1 6 7 2 4 3h3l7-8 11-14 10-10 7-8 16-15 12-9 10-9 20-15 17-11 22-14 10-6 15-8 28-12 40-13 30-8 4 1 4 10 13 41 7 24 5 14v3l-2 1-26 3-46 8-30 9-18 6-34 16-22 12-24 14-18 12-15 11-9 7-15 13-13 12-17 17-7 8-11 13-11 14-7 9-5 9-7 10-5-1v-252l-1-31 4-14 11-19 9-19 9-14 9-10 18-22 12-13 11-10 8-7 15-14 12-9 10-7 11-6 11-8 26-15 12-7 11-6 23-11 24-9z" fill="#DADDDF"/>
<path transform="translate(548,970)" d="m0 0 28 2 27 4 20 4 26 6 25 6 31 9 16 6 25 9 29 11 13 6 10 5 21 8 23 12 24 14 11 8 19 14 17 13 10 9 5 4v2l4 2 11 9 15 16 9 8 14 8 13 4 7 1h14l18-4 11-6 10-8 11-10 9-11 8-8 8-7 8-8 10-8 14-11 12-10 20-13 15-9 17-9 25-11 28-13 29-11 33-11 28-8 46-11 34-7 40-5 18-1 4 10 11 33 5 12v5l-9 2-22 3-28 5-28 3-25 6-25 7-30 8-16 5-31 11-18 8-24 10-22 11-13 8-15 8-16 8-15 10-16 12-12 11-24 24-9 11-21 21-16 12-12 7-11 4-11 2h-14l-17-3-17-6-11-7-11-9-14-12-6-5-9-11-12-14-15-15-11-9-13-11-18-12-23-12-35-18-23-11-27-11-36-13-35-11-46-12-50-9-32-6-12-2 2-9 7-22 7-25z" fill="#DADDDE"/>
<path transform="translate(1438,1082)" d="m0 0h2l-1 8-10 26-16 33-13 24-19 28-10 14-10 13-12 14-14 15-27 27-11 9-13 11-14 10-21 14-18 11-24 13-24 11-36 13-41 11-27 5-33 4-28 2h-21l1-3h4l1-3 6-1 5-1v-3-14l-2-7 2-6 1-11 12-16 6-7h2v-2l5-5h2l2-5 8-11 7-9 12-8 1-2 5-3 5-2v-2l8-7 5-6 12-12 8-4h4l2-4 3-3 3-11 3-8 3-5 10-9 12-9 10-8h2v-2h3v-2h2v-2l12-9h2v-2l11-7 24-16 17-8 4-2h3v-2l10-4 12-5 19-7 41-15 19-6 39-11 36-7z" fill="#11598B"/>
<path transform="translate(990,472)" d="m0 0h41l25 2 30 5 29 7 25 7 26 9 30 13 16 8 15 10 9 8-1 2-12 5-9 3-7 4-1 2-10 4-16 9-1 2-10 5-9 2-1 3-10 6-6 2-2 4-13 10-3 1v2l-5 2-1 3-14 10-15 11-14 11-5 3-7 8-10 11-6 7-12 16-2 3h-2l-2 4-7 10-3 5-3 1v3h-2l-1 4-2 1-2 5-2 2h-3l-2-8-3-1-3-5v-3l-3-1v-3l-3-1v-4h-3l-4-6-5-6v-4h-2v-2l-4-2-8-10-1-3-3-2-1-3-5-4-3-5-2-4-4-1-6-5-3-5-4-4-5-2-4-5-8-4-5-5-11-9-12-8-14-10-10-7-14-9-12-6-23-13-17-9-10-3-6-3 5-5 14-10 17-10 25-12 28-10 28-8 25-6 35-6 16-2z" fill="#41D7FE"/>
<path transform="translate(1461,970)" d="m0 0h6l4 10 11 33 2 8v3l-2 1h-20l-36 6-36 7-40 9-27 7-19 6-35 13-18 8-19 8-16 8-25 14-25 13-11 7-12 8-11 8-6 6h-2v2l-8 7-8 9-6 8-12 12-2 4-6 6-7 4-16 13-10 7-16 8-12 3h-14l-4-2-3-4 5-1 20-2 10-5 6-5 2-3v-10l-4-11v-4l-4-2-1-3-7-1-9 1h-13l-20-4-12-5-11-7-12-11-24-24-11-9-13-11-17-13-17-12-19-12-27-15-16-8-17-8-23-10-17-6-15-6-20-7-30-10-24-7-38-9-19-4-27-4-25-3-3-2 2-5 22 1 36 5 43 10 18 4 18 5 11 2 12 4 24 9 26 9 27 11 9 5 25 10 28 15 22 13 10 8 18 13 14 11 10 9 5 4v2l4 2 11 9 15 16 9 8 14 8 13 4 7 1h14l18-4 11-6 10-8 11-10 9-11 8-8 8-7 8-8 10-8 14-11 12-10 20-13 15-9 17-9 25-11 28-13 29-11 33-11 28-8 46-11 34-7 40-5z" fill="#FCFDFD"/>
<path transform="translate(652,633)" d="m0 0 25 2 6 2-4 18-8 27-13 43-9 29-10 34-6 19-6 25-6 22-11 36-2 10h21l21 3 33 7 21 5 36 12 27 10 20 9 15 8 20 8 19 11 16 10 17 13 13 11 11 9 11 11 3 2v2l4 2 5 5 15 14 9 11 10 13 10 19 6 10 5 13v5l-5-2-12-13-12-12-2-1v-2l-4-2-7-7-8-7-13-11-18-13-26-17-19-11-23-12-26-12-32-14-40-15-32-10-84-18-43-7-8-2 1-8 14-43 10-31 10-34 9-29 7-21 11-38 6-24 14-49 7-24z" fill="#DADDDF"/>
<path transform="translate(1362,630)" d="m0 0 4 2 6 21 6 25 9 29 9 27 15 49 7 20 8 27 17 56 8 27 6 16v6l-9 2-23 3-50 10-34 7-28 5-21 6-57 21-23 10-32 16-22 12-26 15-11 7-13 10-12 9-13 11-12 11-6 5-2 3h-2l-2 4-8 8-10 13-6 7-3 1-1-2 8-15 5-12 12-19 6-10 14-17 12-13 8-7 10-10 8-7 16-16 16-12 26-17 25-15 16-8 18-8 35-14 36-12 28-7 46-8 22-2h16l-4-8-11-38-9-29-12-38-8-33-8-26-6-20-8-24-7-23-9-24v-3l27-3z" fill="#FCFCFD"/>
<path transform="translate(1426,1093)" d="m0 0h11l-1 5-8 20-14 29-14 26-19 28-10 14-10 13-12 14-14 15-27 27-11 9-13 11-14 10-21 14-5 2 1-4 5-4h2v-8l-5-1-4-5-3-3-1-6-3-4v-3l-2-1-6-7-6-4-10-1-8-7-2-2-5 1-2 1h-8l-10-4-10-2 1 5v9l-6 8-5 2-8-1-5-3-4-5v-10l4-12 2-3 20-5 4-2h7l3 1h10l1-4-5-3-3-5 1-7 13-10 9-6 3-1 2-4 6-5h3v-2l11-7 5-4 11-6 11-7 9-5 8-6 7-4 6-4h3v-2l9-6 7-4 10-6 10-5 6-1 13-4 21-8 8-4 13-9 9-6 7-5 13-4 5-1z" fill="#2692C5"/>
<path transform="translate(895,488)" d="m0 0h7l-2 2-9 2-6 3-7 2-2 4 2 1 2 5 3 3 2 5 6 8 10 6 10 4 2 2 8 3 7 14 11 10v2l3 1 7 8 3 3 3 6 10 7 10 8 6 4 6 3 4 6 6 4 14 14 3 5 10 6 5 2v2l13 3 6 3-1 6 1 6v6l7-6h3l-6 8-4 4-12 16-2 3h-2l-2 4-7 10-3 5-3 1v3h-2l-1 4-2 1-2 5-2 2h-3l-2-8-3-1-3-5v-3l-3-1v-3l-3-1v-4h-3l-4-6-5-6v-4h-2v-2l-4-2-8-10-1-3-3-2-1-3-5-4-3-5-2-4-4-1-6-5-3-5-4-4-5-2-4-5-8-4-5-5-11-9-12-8-14-10-10-7-14-9-12-6-23-13-17-9-10-3-6-3 5-5 14-10 17-10 25-12 28-10z" fill="#30A2D4"/>
<path transform="translate(1334,771)" d="m0 0 4 1 4 10 13 41 7 24 2 6v7l-5-1-1-1-19 1-21 3-27 6-20 6-25 9-18 8-16 8-23 12-27 16-30 20-4 2-1 2h-2l-1-3 2-2 4-16 5-35 3-16-1-8 14-12 18-14 20-13 22-14 10-6 15-8 28-12 40-13z" fill="#FDFDFD"/>
<path transform="translate(946,477)" d="m0 0h11l7 3 1 3v4l1 7 2 1v3l5 1 6 7v2l4 1 5 4 9 2 2 3 10 4 5 4 6 5 2 6 4 5h-2l-1 2 1 1 3-1 2-3 11 6 4 4v4l3 1v2h2v3l5 2 3 2 2 4 2 2 7 3 6 3 10 6 2 1 5 1 8 4 2 2h11l4 2 1 10-1 7 4 1-19 14-11 8-14 11-5 3-7 8-5 5-5 3-6 5-1-1v-10l-1-3 1-4-5-3-10-2-3-2v-2l-6-2-10-6-6-8-12-12-6-4-3-5-10-5-9-8-6-4-8-6-3-6-8-8-7-8-8-7-5-9-1-4-9-4-16-8-8-6-6-10v-3l-3-1-1-5-3-1 3-5 7-2 7-3 9-2-2-2 25-6z" fill="#3BBAEB"/>
<path transform="translate(1275,562)" d="m0 0 4 1 8 30 7 26 8 18-1 4-36 12-24 10-24 11-17 11-18 11-15 10-14 8-13 10-13 12-7 8-8 8-9 11-6 8h-2l6-12v-17l4-40 5-36 2-5 4-6 13-12 13-10 10-7 11-6 11-8 26-15 12-7 11-6 23-11 24-9z" fill="#FDFDFD"/>
<path transform="translate(1429,1083)" d="m0 0h7l-4 2-30 5-19 5-17 6-6 3-14 4-17 9-13 8-16 8-8 3-3 2-6 2-9 4-3 3-14 5-12 7-2 5-6 5-13 5-8 6-18 22-14 11-3 3h-3v2l-18 10h-2l-1 3-5 2v2l-13 9h-2v2h-2l-1 4-6 7-9 6-2 3h-3v2l-8 7-3 4-4 12-2 4 1 9 3 7 3 3 1 8 6 2v6h2l2 3 7 2v4l4 2 2 4 1 10 3 4v2h2l1 10-4 6-6 5-24 6-22 4-33 4-28 2h-21l1-3h4l1-3 6-1 5-1v-3-14l-2-7 2-6 1-11 12-16 6-7h2v-2l5-5h2l2-5 8-11 7-9 12-8 1-2 5-3 5-2v-2l8-7 5-6 12-12 8-4h4l2-4 3-3 3-11 3-8 3-5 10-9 12-9 10-8h2v-2h3v-2h2v-2l12-9h2v-2l11-7 24-16 17-8 4-2h3v-2l10-4 12-5 19-7 41-15 19-6 39-11 36-7z" fill="#104D7B"/>
<path transform="translate(1302,672)" d="m0 0h5l3 7 9 29 8 22 2 7v4l-31 9-52 20-29 14-22 11-16 10-16 11-14 10-13 11-5 5h-2l-2 4-6 5v-3l3-7 3-20 6-27 3-15v-4l-8 1-3 2 2-4 15-15 11-9 10-8 18-13 12-8 19-12 40-20 24-9z" fill="#FDFDFD"/>
<path transform="translate(1426,1093)" d="m0 0h11l-1 5-5 12-13 5-10 4-9 3-14 5-5 3-6 3-18 5-5 3-18 4-3 1h-6l-9 5-8 5-5 2-4 4-5 1v2l-12 6h-2v2l-10 7-4 3-14 7-4 4h-2l-3 6v16l3 5 5 2 2 10 5 2 13 1 9 5 16 9 6 3 8 2 12 2 2 3-3 8-4 1-1 4-3 5-2 1-2 5-11 9-13 11-14 10-21 14-5 2 1-4 5-4h2v-8l-5-1-4-5-3-3-1-6-3-4v-3l-2-1-6-7-6-4-10-1-8-7-2-2-5 1-2 1h-8l-10-4-10-2 1 5v9l-6 8-5 2-8-1-5-3-4-5v-10l4-12 2-3 20-5 4-2h7l3 1h10l1-4-5-3-3-5 1-7 13-10 9-6 3-1 2-4 6-5h3v-2l11-7 5-4 11-6 11-7 9-5 8-6 7-4 6-4h3v-2l9-6 7-4 10-6 10-5 6-1 13-4 21-8 8-4 13-9 9-6 7-5 13-4 5-1z" fill="#1F77AB"/>
<path transform="translate(1065,476)" d="m0 0 16 2 30 7 29 8 26 9 30 13 16 8 15 10 9 8-1 2-12 5-9 3-7 4-1 2-10 4-16 9-1 2-16 4-4-1-2-15-5-1-6-2-2-2-7-2-4-3-8-2-6-5-5-5-8-7-1-5-13-10-8-9v-2l-4-2-3-3-4-10-7-8z" fill="#47E3FE"/>
<path transform="translate(1304,345)" d="m0 0 10 3 11 6 10 8 29 29 8 11 1 5-5 10-11 13-14 15-7 7-14 11-10 8-7 3-13-10-14-12-10-9-7-8-9-10-7-11-3-6 2-6 6-10 11-13 9-10 20-15 10-7zm-2 32-11 4-9 9-6 12v12l6 11 8 8 9 4 3 1h7l11-4 9-8 6-10 1-3v-10l-4-10-9-10-7-5-4-1z" fill="#0A2339"/>
<path transform="translate(1379,1308)" d="m0 0h20l12 3 11 7 7 6 9 12 5 12 2 12-2 12-5 11-7 9-9 9-10 7-16 7h-14l-11-4-10-6-10-9-5-5-7-9-6-12-1-5v-10l4-13 7-11 9-10 10-7 8-4zm3 23-8 3-9 8-6 10-2 5v7l6 12 8 8 8 4 3 1h15l10-5 7-7 5-10v-15l-4-8-8-8-8-4-3-1z" fill="#FDFDFD"/>
<path transform="translate(1360,1098)" d="m0 0 4 1-51 17-12 5-8 1v2l-12 5-11 5-9 2-7 4h-4v2l-9 3-13 6h-2l-1 3-6 1v2l-5 2-1 3-11 6-11 7-2 3h-2l-2 5-5 5-7 8-6 8-8 7h-2l-2 4-16 16h-2l-2 5-5 9-4 5-14 7-5 4h-2l-2 4-2 3-4 2-6 8-6 4-4 3h-2l-1 3-6 4-1 3-4 2-10 15-3 10 1 2-2 3-1-1-1 2h2l1 4 3 7 7 2 2 3 3 5 8 6 2 5 3 5 5 3 6 7 3 1v2l2 1-3 4h-2l-3 3h-2v4l-9 2-33 4-28 2h-21l1-3h4l1-3 6-1 5-1v-3-14l-2-7 2-6 1-11 12-16 6-7h2v-2l5-5h2l2-5 8-11 7-9 12-8 1-2 5-3 5-2v-2l8-7 5-6 12-12 8-4h4l2-4 3-3 3-11 3-8 3-5 10-9 12-9 10-8h2v-2h3v-2h2v-2l12-9h2v-2l11-7 24-16 17-8 4-2h3v-2l10-4 12-5 19-7 41-15 19-6z" fill="#0E436D"/>
<path transform="translate(680,772)" d="m0 0 7 1 7 2-4 1-10-1-2 20-5 25-6 25v6l7 1 25 6 31 9 36 12 24 11 33 16 24 14 21 14 17 13 12 10 9 7 7 7 8 7 23 23 11 14 13 18 11 15 9 15 2 6-3 3-13-19-10-12-10-14-7-9-12-14-24-24-8-7-15-12-12-8-15-11-18-11-17-10-28-15-17-9-28-11-25-8-49-11-24-4-1-4 7-28 11-34 7-24z" fill="#DBDEDF"/>
<path transform="translate(1538,638)" d="m0 0h35l28 1 7 4 4 5 1 6-3 5-6 5-2 1-19 1h-118l-9-4-6-6v-8l7-7 9-2z" fill="#0C253C"/>
<path transform="translate(596,1190)" d="m0 0h31l2 6 8 10-2 4-4 2-25 2h-135l-5-3-5-8 1-5 4-5 25-1z" fill="#FCFCFC"/>
<path transform="translate(543,1305)" d="m0 0h31l84 1 13 2 8 5 3 4-1 4-4 3-13 3-19 1-104 1-11-1-6-5-1-3v-8l5-5z" fill="#FDFDFD"/>
<path transform="translate(1454,924)" d="m0 0 2 2 1 9-9 2-23 3-50 10-34 7-28 5-21 6-57 21-23 10-32 16-22 12-26 15-11 7-13 10-12 9-13 11-12 11-6 5-2 3h-2l-2 4-8 8-10 13-6 7-3 1-1-2 8-15 3-8 2 2 2-3 3 1 3-6 11-12 7-8 11-9 12-10 16-12h3v-2l12-8 27-16 10-6 14-7 18-10 7-3h4v-2l19-9 28-11 18-7 28-9 30-7 32-8 17-4 14-3 28-5 16-2h21z" fill="#D8DCDE"/>
<path transform="translate(654,635)" d="m0 0 21 1 6 1-1 9-17 58-9 27-5 14-4 14-2 11-5 15-6 16-3 7-2 5-1 9-2 1-2-1v2h-2v-8l3-12 4-23 7-28 2-14 1-13 1-14 6-24 6-27 3-21z" fill="#FEFEFE"/>
<path transform="translate(435,1117)" d="m0 0h13l19 2 8 4 4 5 3 4h74l10 1 5 3 2 4v8l-4 5-4 2-9 1h-45l-17-1-10-2-6-7-3-9h-13l-9 1h-14l-5-2-6-6v-7l5-5z" fill="#0A2339"/>
<path transform="translate(709,673)" d="m0 0 6 1 5 2-3 1-7-3-2 19-2 12-4 17v10l14 6 61 27 15 8 21 10 22 12 17 10 16 13 14 11 12 11 2 1v2l4 2 28 28 7 8 10 12 8 13v4l-4 2-10-14-14-17-26-26-8-7-11-10-11-9-20-15-18-11-18-10-20-9-26-13-27-11-25-9-19-5-6-2-1-3 10-34 8-27z" fill="#DBDEDF"/>
<path transform="translate(1421,1128)" d="m0 0 2 1-12 24-11 20-19 28-7 10-1-2 5-9-1-3 1-4h-2v-3l-10 1-6 2-7-1-9-2-3-2-10-2-4-5-2-9v-4l12-4 8-1 12-2 13-7 10-9 14-8 9-2h8l8-5z" fill="#31A3D5"/>
<path transform="translate(736,568)" d="m0 0 1 4-6 25-2 7-2 18-2 5-2 2v4l5 2 13 3 26 11 27 13 22 13 26 17 12 8 17 12 13 10 10 9 8 7 10 9 10 11 10 13 13 18 1 4h2l3 6-2 5-5-5-9-11-14-17-9-11-14-15-8-7-11-9-12-10-17-11-19-12-22-13-26-14-26-11-37-14-4-2v-6l6-18z" fill="#DBDEDF"/>
<path transform="translate(1352,632)" d="m0 0h7l-4 2-6 1h-15l1 6 4 1v-2l3 1 9 20 4 11 5 17 4 11 7 22 5 22 5 18 8 25 7 22 16 48 4 20 4 19v6l-2 1-2-1h-16l-23 2h-6v-1l14-2 13-1h16l-4-8-11-38-9-29-12-38-8-33-8-26-6-20-8-24-7-23-9-24v-3z" fill="#DBDEDF"/>
<path transform="translate(1484,1159)" d="m0 0h7l7 3 2 9v4l15 3 8 5 3 5v8l-4 6-5 3-6 1h-8l-1 8-3 8-5 4h-7l-5-5-1-3-1-11-19-2-3-4-1-3v-10l6-7 17-3 3-18z" fill="#0A243A"/>
<path transform="translate(632,462)" d="m0 0h14l2 1v24l22 1 4 1 1 2v17l-2 2h-23v23l-1 1h-17l-2-1-1-9 1-16-24-1-1-1v-11l2-7h23v-24z" fill="#FDFDFD"/>
<path transform="translate(794,952)" d="m0 0 6 1 22 9 19 11 16 10 17 13 13 11 11 9 11 11 3 2v2l4 2 5 5 15 14 9 11 10 13 10 19 6 10 5 13v5l-5-2-5-6-1-5-4-7-8-11-29-29-7-6-6-11-5-6v-2l-3-1-7-8-15-16-3-3v-2h-2l-5-6-16-10-12-9-14-7-15-9-11-7-3-2v-2h-5l-2-3z" fill="#FBFBFB"/>
<path transform="translate(438,863)" d="m0 0h13l10 3 8 7 5 10v12l-6 12-8 7-7 3h-17l-7-3-5-4-5-9-1-4v-14l4-10 7-7zm6 15-9 2-3 6 1 9 3 5 7 3h7l6-3 3-5v-9l-3-5-3-2z" fill="#0A243B"/>
<path transform="translate(1518,816)" d="m0 0h38l11 2 5 3 3 6-1 7-4 6-3 1h-61l-7-2-4-5-1-7 4-7 2-2z" fill="#FEFEFE"/>
<path transform="translate(538,1254)" d="m0 0h71l9 2 1 4-5 4-10 6-9 5-9 1h-50l-4-2-5-7-1-3v-7l2-2z" fill="#FDFDFD"/>
<path transform="translate(1566,755)" d="m0 0h52l7 3 4 6v7l-4 5-8 3-12 1-21-1h-24l-8-5-3-4 1-7 4-6 1-1z" fill="#FDFDFD"/>
<path transform="translate(1509,691)" d="m0 0h18l5 3 4 6 1 3v10l-5 5h-53l-8-3-3-3-1-6 3-6 3-3 11-3z" fill="#FDFDFD"/>
<path transform="translate(799,528)" d="m0 0h9l4 4v3l-2 2 2 2 3 9 2 1v2l9 1 15 4 10 2 7 5 7 9 1 6 5 2v2h2l1 4h3l4 5v2l4 2 5 3 8 5v2l7 1 4 5 5 3v2h4l4 5 3 2v2l10 1v2l4 2-1 7 2 4-7-6-5-2-4-5-8-4-5-5-11-9-12-8-14-10-10-7-14-9-12-6-23-13-17-9-10-3-6-3 5-5z" fill="#258FC2"/>
<path transform="translate(1299,632)" d="m0 0 2 3 1 5-7 3-30 10-24 10-24 11-17 11-18 11-15 10-14 8-13 10-13 12-7 8-8 8-7 8-1-2 1-2-2-1 4-6 9-11 21-21 10-7 23-14 24-16 11-7 12-8 23-11 23-10 14-6 5-2h12l5 1z" fill="#DBDEE0"/>
<path transform="translate(1569,875)" d="m0 0h11l8 4 6 7 2 6-1 9-7 11-6 4-4 1h-10l-6-3-6-9-2-5v-10l5-9 7-5z" fill="#0A233A"/>
<path transform="translate(1313,737)" d="m0 0h8l-3 5 1 2-24 7-23 9-26 10-29 14-22 11-16 10-16 11-14 10-6 4-5-1-4 2 2-4 4-2v-2l13-9 27-18 22-12 16-9 22-11 27-11 9-4 16-6z" fill="#DCDFE0"/>
<path transform="translate(553,550)" d="m0 0h12l8 4 5 10-1 10-5 8-9 5h-9l-7-3-5-6-3-7v-8l4-8 7-4z" fill="#FEFEFE"/>
<path transform="translate(489,1254)" d="m0 0 17 1 4 2 1 2v13l-3 4-12 2h-29l-7-6-2-4v-8l3-4 5-1z" fill="#FDFDFD"/>
<path transform="translate(714,1369)" d="m0 0 13 1 6 4 4 6 1 3v7l-3 6-4 5-6 3h-11l-7-4-4-5-2-4v-10l3-6 6-5z" fill="#0B243A"/>
<path transform="translate(1411,501)" d="m0 0h8l9 3 5 5 3 6v9l-4 8-4 5-5 3h-8l-6-4-4-6-2-6v-15l4-6z" fill="#0A233A"/>
<path transform="translate(1495,754)" d="m0 0h21l7 3 4 6 1 7-2 4-7 4-5 1h-20l-9-3-3-4-1-8 4-6 4-3z" fill="#0A243A"/>
<path transform="translate(1450,575)" d="m0 0 9 1 6 4 4 5 1 7-7 9-6 3h-18l-6-4-6-8 1-6 5-6 9-4z" fill="#0B253B"/>
<path transform="translate(608,1370)" d="m0 0h13l13 3 5 3 4 7-3 5-8 4-6 1h-24l-6-4-4-5v-6l5-5z" fill="#FDFDFD"/>
<path transform="translate(435,1117)" d="m0 0h13l19 2 8 4 4 5 1 5-3 7-2-1v-2h-13l-9 1h-14l-5-2-6-6v-7l5-5z" fill="#FDFDFD"/>
<path transform="translate(515,759)" d="m0 0h22l6 3 1 2-1 9-4 4-10 2h-21l-7-2-4-5 1-7 5-4z" fill="#0B253C"/>
<path transform="translate(1511,576)" d="m0 0h9l8 4 5 7 1 5-3 5-7 6-4 1h-10l-8-4-4-5-1-7 4-6z" fill="#0B253B"/>
<path transform="translate(1150,1259)" d="m0 0 9 1 4 5 4 4 1 2v9l-6 8-5 2-8-1-5-3-3-6v-8l4-9z" fill="#F3FAFB"/>
<path transform="translate(1018,549)" d="m0 0h8l5 5 3 4 1 6-3 6-7 6h-6l-6-5-3-8 1-6 4-6z" fill="#FAFAFA"/>
<path transform="translate(1e3 691)" d="m0 0 2 1 1 4 3 1v6l3 2 12-9 4 2-6 8-3 5-3 1v3h-2l-1 4-2 1-2 5-2 2h-3l-2-8-3-1-3-5v-2l4-1v-2l5-2v-6l-3-3z" fill="#258FC2"/>
<path transform="translate(460,718)" d="m0 0 6 1 5 4 1 8-3 5-3 3h-7l-5-6-1-5 3-7z" fill="#F9FAFA"/>
<path transform="translate(548,970)" d="m0 0 28 2 27 4 20 4 26 6 25 6 18 5v1l-9-1-26-7-36-8-13-3-36-5-19-1-3-1-2 4-1-4z" fill="#DBDEDF"/>
<path transform="translate(468,1120)" d="m0 0 6 2 5 6 1 5-3 7-2-1v-2h-19l4-4 10-5v-4l-2-1z" fill="#DBDEDF"/>
<path transform="translate(746,932)" d="m0 0 11 1 21 9 14 7-1 3h-5l-4-3-7-3-9-4v-2l-6-1-12-4-2-1z" fill="#F0F3F4"/>
<path transform="translate(793,546)" d="m0 0 9 3 17 9 21 12 11 6 13 8 10 7 14 10 1 2-5-2-17-12-16-10-28-16-17-9-13-7z" fill="#105383"/>
<path transform="translate(669,910)" d="m0 0h7l26 6 31 10-1 2-7-1-3-1v-2h-8l-18-5-12-4-5-2-9-1z" fill="#FEFEFE"/>
<path transform="translate(1429,1083)" d="m0 0h7l-4 2-30 5-19 5-12 4-3-1v-2l17-5 36-7z" fill="#0F4975"/>
<path transform="translate(614,1190)" d="m0 0h13l2 6 8 10-2 4-4 2h-7l2-2 1-12-3-5-10-2z" fill="#D9DDDE"/>
<path transform="translate(1044,1112)" d="m0 0 3 1-2 5-8 10-5 3-1-2 6-11 5-2z" fill="#F4F4F5"/>
<path transform="translate(1017,547)" d="m0 0h9l8 6 2 7-1 8-2 1 1-8-3-6-5-5h-8l-5 5-3 8h-1l1-9 4-5z" fill="#45DEFF"/>
<path transform="translate(609,1255)" d="m0 0 9 1 1 4-5 4-7 4-2-1 4-8z" fill="#DBDEDF"/>
<path transform="translate(1023,1367)" d="m0 0 5 2 3 3-2 4-1 3h-3l-1-2-4-2-2-3 5-3z" fill="#092137"/>
<path transform="translate(1100,980)" d="m0 0v3l-22 22-7 8h-3l13-14 6-7h2l2-4 8-7z" fill="#ECEEEE"/>
<path transform="translate(1143,1268)" d="m0 0 1 2v11l5 5 2 1h10v-2l4-2-2 4-6 3-8-1-5-3-3-6v-8z" fill="#DBDEDF"/>
<path transform="translate(1233,541)" d="m0 0 3 1-13 6-9 3-7 4-1 2-6 2 2-3h2v-2l17-9z" fill="#2B96C8"/>
<path transform="translate(895,488)" d="m0 0h7l-2 2-9 2-6 3-8 1-3-2z" fill="#34AFDE"/>
<path transform="translate(975,1052)" d="m0 0h2l7 11h4l2 6-3 3-12-17z" fill="#D7DDDF"/>
<path transform="translate(859,583)" d="m0 0 5 1 10 7 14 10 1 2-5-2-17-12-8-5z" fill="#105180"/>
<path transform="translate(793,546)" d="m0 0 9 3 17 9 2 3-6-2-10-6-12-6z" fill="#105180"/>
<path transform="translate(960,1029)" d="m0 0 5 5 2 4v4l-3-1-5-7z" fill="#F5F6F6"/>
<path transform="translate(1024,547)" d="m0 0 5 2 5 4 2 7-1 8-2 1 1-8-3-6-5-5z" fill="#43DBFF"/>
<path transform="translate(1039,1050)" d="m0 0 1 3-10 15h-3l1-4 5-5z" fill="#EEEFF0"/>
<path transform="translate(993,1055)" d="m0 0h1v25l-4-3 1-2 2 1-2-7z" fill="#C5D4DB"/>
<path transform="translate(1064,1093)" d="m0 0 1 2-2 3h-2l-2 4-3 3h-2l1-4 3-1 1-3z" fill="#EDEEEF"/>
<path transform="translate(1100,980)" d="m0 0v3l-12 12h-2l1-3h2l2-4 8-7z" fill="#F0F1F1"/>
<path transform="translate(892,605)" d="m0 0 5 2 13 10 1 2-4-2-14-10z" fill="#105282"/>
<path transform="translate(746,932)" d="m0 0 10 2 4 4-11-2-3-2z" fill="#FEFEFE"/>
<path transform="translate(974,1114)" d="m0 0 2 4v5l-5-2-3-3 1-2 4 1z" fill="#DBDEDF"/>
<path transform="translate(1283,750)" d="m0 0h8l-4 3-5 2h-3l1-4z" fill="#FEFEFE"/>
<path transform="translate(648,509)" d="m0 0h25v1h-23v2l-3-1z" fill="#DBDEDF"/>
<path transform="translate(1233,541)" d="m0 0 3 1-13 6-3-1 6-4z" fill="#156091"/>
<path transform="translate(1036,1120)" d="m0 0 2 4h-2v5l-4 2-1-2z" fill="#DCDFE0"/>
<path transform="translate(1056,1028)" d="m0 0v3l-8 10-2-1 9-11z" fill="#EDEFEF"/>
<path transform="translate(1207,677)" d="m0 0h2l-1 3-6 4-4-1 3-3 5-2z" fill="#F1F2F3"/>
</svg>
